PathFileType	4	(X/Y/Z)	 1.9Hzhigh3min.trc
DataRate	CameraRate	NumFrames	NumMarkers	Units	OrigDataRate	OrigDataStartFrame	OrigNumFrames
200	200	8	35	m	200	751	1000
Frame#	Time	C7			LSH			RSH			MAN			RASI			LASI			HIPR			HIPL			RPSI			LPSI			COX			RTHI1			RTHI2			RTHI3			RTHI4			RSHA1			RSHA2			RSHA3			RSHA4			RHEEL			RMET5			RMET1			RTOE			LTHI1			LTHI2			LTHI3			LTHI4			LSHA1			LSHA2			LSHA3			LSHA4			LHEEL			LMET5			LMET1			LTOE			
		X1	Y1	Z1	X2	Y2	Z2	X3	Y3	Z3	X4	Y4	Z4	X5	Y5	Z5	X6	Y6	Z6	X7	Y7	Z7	X8	Y8	Z8	X9	Y9	Z9	X10	Y10	Z10	X11	Y11	Z11	X12	Y12	Z12	X13	Y13	Z13	X14	Y14	Z14	X15	Y15	Z15	X16	Y16	Z16	X17	Y17	Z17	X18	Y18	Z18	X19	Y19	Z19	X20	Y20	Z20	X21	Y21	Z21	X22	Y22	Z22	X23	Y23	Z23	X24	Y24	Z24	X25	Y25	Z25	X26	Y26	Z26	X27	Y27	Z27	X28	Y28	Z28	X29	Y29	Z29	X30	Y30	Z30	X31	Y31	Z31	X32	Y32	Z32	X33	Y33	Z33	X34	Y34	Z34	X35	Y35	Z35	
751	3.7550	-0.339577	1.304723	-0.526864	-0.265879	1.266219	-0.700782	-0.294338	1.270510	-0.353476	-0.222392	1.250337	-0.523687	-0.214516	0.873218	-0.448885	-0.204757	0.880309	-0.627997	-0.287843	0.913214	-0.400100	-0.256767	0.931406	-0.665482	-0.364648	0.901314	-0.475438	-0.353824	0.911843	-0.592674	-0.363882	0.914900	-0.534266	-0.275811	0.689800	-0.370613	-0.260801	0.629870	-0.371513	-0.192851	0.654734	-0.383710	-0.215584	0.710738	-0.381822	-0.282317	0.289540	-0.366044	-0.308800	0.255646	-0.371014	-0.257192	0.225910	-0.384583	-0.236111	0.260388	-0.382796	-0.445278	0.080896	-0.435070	-0.301261	0.030185	-0.356276	-0.262518	0.032805	-0.433461	-0.238590	0.026064	-0.421456	-0.283909	0.650042	-0.700276	-0.269635	0.593107	-0.693492	-0.199583	0.611001	-0.697810	-0.221515	0.667578	-0.706056	-0.327575	0.268888	-0.679735	-0.351429	0.236724	-0.674210	-0.296687	0.205770	-0.669585	-0.279179	0.245689	-0.677168	-0.459307	0.084877	-0.616872	-0.317046	0.028226	-0.690771	-0.276599	0.034626	-0.620175	-0.254258	0.026536	-0.632684	
752	3.7600	-0.339838	1.309595	-0.527210	-0.266007	1.271184	-0.701089	-0.294369	1.275604	-0.353854	-0.222529	1.255352	-0.524093	-0.213689	0.878326	-0.449227	-0.204157	0.885450	-0.628436	-0.287453	0.917952	-0.400298	-0.257183	0.936052	-0.666053	-0.363780	0.905767	-0.475598	-0.353210	0.916356	-0.592746	-0.363195	0.919300	-0.534395	-0.275157	0.694740	-0.370485	-0.260631	0.634711	-0.371235	-0.192528	0.658996	-0.383989	-0.214815	0.715165	-0.382085	-0.283561	0.292602	-0.365251	-0.309749	0.258441	-0.370270	-0.257910	0.229165	-0.383965	-0.237116	0.263824	-0.382195	-0.444645	0.083299	-0.434066	-0.300924	0.030288	-0.356101	-0.262499	0.032822	-0.433253	-0.238640	0.026070	-0.421424	-0.283841	0.655146	-0.701110	-0.269946	0.598090	-0.694398	-0.199757	0.615613	-0.698258	-0.221322	0.672328	-0.706472	-0.328643	0.271890	-0.681129	-0.352228	0.239521	-0.675605	-0.297243	0.209092	-0.670732	-0.280057	0.249120	-0.678330	-0.458580	0.087273	-0.618456	-0.316641	0.028273	-0.691044	-0.276536	0.034649	-0.620450	-0.254291	0.026540	-0.632727	
753	3.7650	-0.340178	1.315079	-0.527506	-0.266347	1.276825	-0.701392	-0.294374	1.281308	-0.354254	-0.222825	1.260960	-0.524521	-0.212806	0.884091	-0.449654	-0.203503	0.891210	-0.628953	-0.286841	0.923462	-0.400605	-0.257461	0.941350	-0.666561	-0.362809	0.910787	-0.475746	-0.352509	0.921407	-0.592830	-0.362418	0.924261	-0.534522	-0.274582	0.700373	-0.370236	-0.260569	0.640204	-0.370889	-0.192282	0.663780	-0.384260	-0.214039	0.720155	-0.382341	-0.285169	0.296093	-0.364346	-0.310964	0.261592	-0.369495	-0.258826	0.232883	-0.383211	-0.238387	0.267758	-0.381454	-0.443895	0.085962	-0.432993	-0.300554	0.030426	-0.355924	-0.262474	0.032860	-0.433002	-0.238700	0.026086	-0.421372	-0.283753	0.660855	-0.702030	-0.270283	0.603671	-0.695394	-0.199944	0.620770	-0.698728	-0.221103	0.677640	-0.706913	-0.329841	0.275303	-0.682652	-0.353107	0.242697	-0.677132	-0.297843	0.212869	-0.672037	-0.281033	0.253031	-0.679632	-0.457698	0.090000	-0.620218	-0.316176	0.028357	-0.691348	-0.276464	0.034698	-0.620787	-0.254335	0.026546	-0.632789	
754	3.7700	-0.340600	1.321109	-0.527772	-0.266902	1.283065	-0.701697	-0.294400	1.287543	-0.354712	-0.223266	1.267114	-0.524971	-0.211880	0.890446	-0.450162	-0.202803	0.897525	-0.629524	-0.285987	0.929708	-0.401030	-0.257524	0.947291	-0.666947	-0.361757	0.916319	-0.475888	-0.351742	0.926965	-0.592888	-0.361556	0.929736	-0.534664	-0.274045	0.706596	-0.370007	-0.260628	0.646279	-0.370556	-0.192145	0.669075	-0.384505	-0.213312	0.725674	-0.382575	-0.287149	0.300034	-0.363309	-0.312420	0.265134	-0.368711	-0.259923	0.237070	-0.382331	-0.239902	0.272184	-0.380575	-0.443001	0.088905	-0.431909	-0.300146	0.030609	-0.355760	-0.262432	0.032924	-0.432709	-0.238767	0.026100	-0.421288	-0.283680	0.667118	-0.703002	-0.270680	0.609801	-0.696442	-0.200186	0.626417	-0.699219	-0.220888	0.683455	-0.707380	-0.331175	0.279124	-0.684240	-0.354069	0.246262	-0.678721	-0.298485	0.217093	-0.673479	-0.282115	0.257415	-0.681062	-0.456637	0.093037	-0.622083	-0.315660	0.028492	-0.691662	-0.276379	0.034778	-0.621186	-0.254386	0.026556	-0.632872	
755	3.7750	-0.341119	1.327625	-0.528028	-0.267655	1.289827	-0.702009	-0.294476	1.294270	-0.355209	-0.223784	1.273816	-0.525455	-0.210918	0.897328	-0.450750	-0.202067	0.904326	-0.630125	-0.284888	0.936622	-0.401578	-0.257323	0.953839	-0.667188	-0.360629	0.922328	-0.476053	-0.350913	0.932970	-0.592947	-0.360624	0.935669	-0.534824	-0.273577	0.713348	-0.369814	-0.260820	0.652880	-0.370247	-0.192135	0.674855	-0.384706	-0.212668	0.731685	-0.382788	-0.289382	0.304339	-0.362282	-0.314079	0.269067	-0.367920	-0.261178	0.241716	-0.381323	-0.241627	0.277076	-0.379565	-0.441929	0.092141	-0.430877	-0.299699	0.030841	-0.355618	-0.262367	0.033017	-0.432371	-0.238839	0.026113	-0.421170	-0.283653	0.673881	-0.703990	-0.271176	0.616440	-0.697513	-0.200519	0.632493	-0.699740	-0.220713	0.689721	-0.707876	-0.332641	0.283352	-0.685846	-0.355112	0.250207	-0.680328	-0.299174	0.221753	-0.675056	-0.283306	0.262268	-0.682611	-0.455371	0.096376	-0.623999	-0.315089	0.028686	-0.691967	-0.276273	0.034892	-0.621644	-0.254443	0.026573	-0.632980	
756	3.7800	-0.341736	1.334557	-0.528280	-0.268570	1.297030	-0.702330	-0.294627	1.301420	-0.355743	-0.224404	1.280984	-0.525954	-0.209925	0.904656	-0.451405	-0.201301	0.911544	-0.630738	-0.283567	0.944100	-0.402248	-0.256817	0.960958	-0.667297	-0.359425	0.928769	-0.476255	-0.350024	0.939372	-0.593026	-0.359632	0.942012	-0.535000	-0.273213	0.720563	-0.369674	-0.261148	0.659938	-0.369963	-0.192254	0.681071	-0.384843	-0.212127	0.738136	-0.382986	-0.291771	0.308997	-0.361377	-0.315900	0.273378	-0.367132	-0.262559	0.246788	-0.380202	-0.243520	0.282409	-0.378435	-0.440616	0.095603	-0.429893	-0.299210	0.031118	-0.355507	-0.262266	0.033138	-0.431983	-0.238913	0.026126	-0.421016	-0.283706	0.681097	-0.704951	-0.271804	0.623524	-0.698572	-0.200985	0.638940	-0.700301	-0.220614	0.696365	-0.708390	-0.334226	0.287948	-0.687434	-0.356222	0.254519	-0.681916	-0.299894	0.226821	-0.676747	-0.284593	0.267551	-0.684267	-0.453870	0.100011	-0.625937	-0.314469	0.028943	-0.692246	-0.276140	0.035039	-0.622159	-0.254500	0.026596	-0.633117	
757	3.7850	-0.342419	1.341830	-0.528529	-0.269614	1.304597	-0.702656	-0.294869	1.308928	-0.356316	-0.225124	1.288543	-0.526462	-0.208909	0.912345	-0.452118	-0.200514	0.919114	-0.631346	-0.282084	0.952026	-0.402990	-0.256040	0.968566	-0.667301	-0.358152	0.935603	-0.476495	-0.349080	0.946122	-0.593124	-0.358572	0.948714	-0.535209	-0.272965	0.728170	-0.369593	-0.261609	0.667398	-0.369708	-0.192495	0.687672	-0.384904	-0.211699	0.744959	-0.383163	-0.294295	0.314011	-0.360506	-0.317830	0.278044	-0.366343	-0.264024	0.252260	-0.378978	-0.245536	0.288148	-0.377201	-0.439011	0.099281	-0.429012	-0.298690	0.031431	-0.355421	-0.262121	0.033293	-0.431531	-0.238986	0.026138	-0.420815	-0.283871	0.688698	-0.705849	-0.272588	0.630986	-0.699573	-0.201608	0.645691	-0.700908	-0.220631	0.703330	-0.708922	-0.335902	0.292886	-0.688981	-0.357372	0.259135	-0.683455	-0.300631	0.232259	-0.678541	-0.285950	0.273217	-0.686009	-0.452138	0.103890	-0.627837	-0.313808	0.029256	-0.692490	-0.275962	0.035218	-0.622726	-0.254554	0.026630	-0.633286	
758	3.7900	-0.343134	1.349343	-0.528790	-0.270758	1.312452	-0.702986	-0.295202	1.316725	-0.356933	-0.225881	1.296430	-0.526993	-0.207878	0.920316	-0.452872	-0.199706	0.926961	-0.631930	-0.280501	0.960303	-0.403756	-0.255057	0.976548	-0.667237	-0.356810	0.942784	-0.476792	-0.348069	0.953181	-0.593203	-0.357463	0.955727	-0.535445	-0.272828	0.736104	-0.369574	-0.262180	0.675179	-0.369501	-0.192844	0.694604	-0.384886	-0.211376	0.752099	-0.383313	-0.296899	0.319339	-0.359677	-0.319820	0.283014	-0.365552	-0.265531	0.258087	-0.377666	-0.247625	0.294250	-0.375887	-0.437071	0.103156	-0.428277	-0.298139	0.031792	-0.355365	-0.261925	0.033484	-0.431005	-0.239054	0.026148	-0.420562	-0.284169	0.696616	-0.706643	-0.273540	0.638757	-0.700491	-0.202402	0.652697	-0.701570	-0.220779	0.710558	-0.709480	-0.337629	0.298092	-0.690472	-0.358521	0.264003	-0.684926	-0.301343	0.238004	-0.680406	-0.287347	0.279199	-0.687819	-0.450149	0.108002	-0.629697	-0.313107	0.029627	-0.692702	-0.275735	0.035438	-0.623341	-0.254602	0.026675	-0.633492	
